<svg width="20" height="20" viewBox="0 0 20 20" fill="none" xmlns="http://www.w3.org/2000/svg">
<g clip-path="url(#clip0_0_139)">
<path d="M19.5 10.2266C19.5 15.7539 15.7148 19.6875 10.125 19.6875C4.76562 19.6875 0.4375 15.3594 0.4375 10C0.4375 4.64062 4.76562 0.3125 10.125 0.3125C12.7344 0.3125 14.9297 1.26953 16.6211 2.84766L13.9844 5.38281C10.5352 2.05469 4.12109 4.55469 4.12109 10C4.12109 13.3789 6.82031 16.1172 10.125 16.1172C13.9609 16.1172 15.3984 13.3672 15.625 11.9414H10.125V8.60938H19.3477C19.4375 9.10547 19.5 9.58203 19.5 10.2266Z" fill="black"/>
</g>
<defs>
<clipPath id="clip0_0_139">
<path d="M0.4375 0H19.5V20H0.4375V0Z" fill="white"/>
</clipPath>
</defs>
</svg>
